<svg id="uuid-b0e03815-abbe-426b-aa64-98d9ca036db3" xmlns="http://www.w3.org/2000/svg" viewBox="0 0 116.95 79.1"><defs><style>.uuid-dfc3cdae-4d66-4cec-a038-460813f89293{fill:#0094d9;}.uuid-68847794-d96c-4485-a7cf-d7421900ee28{fill:#faca32;}</style></defs><g id="uuid-d2a26c97-5587-49b5-bfd7-b541d34ea315"><g id="uuid-f18ddb66-34c1-483f-842b-ef8248e62d70"><path class="uuid-68847794-d96c-4485-a7cf-d7421900ee28" d="M100.73,25.64l-15.13,32.7,3.55,6.97,12.42-38.42c-.24-.44-.53-.86-.84-1.25h0Z"/><path class="uuid-68847794-d96c-4485-a7cf-d7421900ee28" d="M95.24,22.59l-13.07,29.03,2.84,5.58,11.2-34.42c-.32-.08-.64-.14-.98-.19,0,0,.01,0,.01,0Z"/><polygon class="uuid-68847794-d96c-4485-a7cf-d7421900ee28" points="105.19 33.38 104.64 33.38 89.44 65.86 93.27 73.38 105.66 33.49 105.41 33.38 105.19 33.38"/><path class="uuid-68847794-d96c-4485-a7cf-d7421900ee28" d="M116.95,19.62v-.29c-6.14,0-11.12-4.86-11.12-10.86v-.02h-.64v.02c0,6-4.98,10.86-11.12,10.86v.55c6.14,0,11.12,4.86,11.12,10.86v.02h.64v-.02c0-6,4.98-10.86,11.12-10.86v-.27h0Z"/><polygon class="uuid-dfc3cdae-4d66-4cec-a038-460813f89293" points="74.45 77.45 82.24 77.45 43.32 0 35.52 0 74.45 77.45"/><path class="uuid-dfc3cdae-4d66-4cec-a038-460813f89293" d="M83.94,77.45h6.81c.71,0,1.17-.74.85-1.38L55.04,2.88c-.88-1.77-2.69-2.88-4.66-2.88h-5.37l38.93,77.45h0Z"/><path class="uuid-dfc3cdae-4d66-4cec-a038-460813f89293" d="M33.83,0h-6.87c-.71,0-1.17.74-.85,1.38l36.73,73.52c.78,1.56,2.38,2.55,4.13,2.55h5.8L33.84,0h0Z"/><path class="uuid-dfc3cdae-4d66-4cec-a038-460813f89293" d="M34.79,32.85l-13.41,40.93c2.8.65,5.34,1.77,7.49,3.24l11.11-33.77-5.19-10.39h0Z"/><path class="uuid-dfc3cdae-4d66-4cec-a038-460813f89293" d="M22.93,9.12L0,79.1c2.6-2.57,6.19-4.47,10.31-5.37L28.08,19.43l-5.15-10.31Z"/><path class="uuid-dfc3cdae-4d66-4cec-a038-460813f89293" d="M29.04,21.35l-17.04,52.06c1.2-.18,2.43-.28,3.7-.28,1.43,0,2.83.12,4.17.35l13.94-42.56-4.78-9.57s.01,0,.01,0Z"/></g></g></svg>