<svg id="uuid-291725ce-3c2c-4b9e-bf69-58acf7bb4aa0" xmlns="http://www.w3.org/2000/svg" viewBox="0 0 387.39 317"><defs><style>.uuid-1f640984-4f26-4f35-a6b1-b42d819c46c9{fill:#fff;}.uuid-95b09e6a-18db-42eb-b460-c7ff395385fa{fill:#e4002b;}.uuid-afb7e743-c633-49f9-9669-15841e3a8637{fill:#0032a0;}</style></defs><g id="uuid-e73194cb-ea51-4414-b2d0-175c1fc86d08"><circle class="uuid-afb7e743-c633-49f9-9669-15841e3a8637" cx="180.06" cy="158.5" r="158.5"/><circle class="uuid-1f640984-4f26-4f35-a6b1-b42d819c46c9" cx="170.7" cy="30.44" r="1.78"/><circle class="uuid-1f640984-4f26-4f35-a6b1-b42d819c46c9" cx="188.94" cy="32.81" r="1.78"/><circle class="uuid-1f640984-4f26-4f35-a6b1-b42d819c46c9" cx="212.87" cy="65.03" r="1.78"/><circle class="uuid-1f640984-4f26-4f35-a6b1-b42d819c46c9" cx="81.62" cy="230.88" r="1.78"/><circle class="uuid-1f640984-4f26-4f35-a6b1-b42d819c46c9" cx="86.24" cy="245.09" r="1.78"/><circle class="uuid-1f640984-4f26-4f35-a6b1-b42d819c46c9" cx="64.21" cy="233.01" r="1.33"/><circle class="uuid-1f640984-4f26-4f35-a6b1-b42d819c46c9" cx="136.47" cy="260.94" r="1.33"/><circle class="uuid-1f640984-4f26-4f35-a6b1-b42d819c46c9" cx="249.8" cy="237.39" r="1.33"/><circle class="uuid-1f640984-4f26-4f35-a6b1-b42d819c46c9" cx="282.74" cy="201.62" r="1.33"/><circle class="uuid-1f640984-4f26-4f35-a6b1-b42d819c46c9" cx="121.3" cy="75.43" r="1.33"/><circle class="uuid-1f640984-4f26-4f35-a6b1-b42d819c46c9" cx="157.55" cy="48.81" r="1.33"/><circle class="uuid-1f640984-4f26-4f35-a6b1-b42d819c46c9" cx="153.62" cy="46.2" r="1.33"/><circle class="uuid-1f640984-4f26-4f35-a6b1-b42d819c46c9" cx="150.06" cy="43.59" r="1.33"/><circle class="uuid-1f640984-4f26-4f35-a6b1-b42d819c46c9" cx="126.99" cy="82.3" r="1.33"/><circle class="uuid-1f640984-4f26-4f35-a6b1-b42d819c46c9" cx="180.38" cy="13.03" r="1.33"/><circle class="uuid-1f640984-4f26-4f35-a6b1-b42d819c46c9" cx="189.15" cy="51.41" r="1.33"/><circle class="uuid-1f640984-4f26-4f35-a6b1-b42d819c46c9" cx="175.32" cy="43.92" r="1.33"/><circle class="uuid-1f640984-4f26-4f35-a6b1-b42d819c46c9" cx="151.63" cy="54.11" r="1.33"/><circle class="uuid-1f640984-4f26-4f35-a6b1-b42d819c46c9" cx="256.11" cy="272.55" r="1.33"/><circle class="uuid-1f640984-4f26-4f35-a6b1-b42d819c46c9" cx="79.37" cy="239.88" r="1.33"/><circle class="uuid-1f640984-4f26-4f35-a6b1-b42d819c46c9" cx="172" cy="257.06" r="1.33"/><circle class="uuid-1f640984-4f26-4f35-a6b1-b42d819c46c9" cx="106.94" cy="238.82" r="1.33"/><circle class="uuid-1f640984-4f26-4f35-a6b1-b42d819c46c9" cx="118.46" cy="257.62" r="1.33"/><circle class="uuid-1f640984-4f26-4f35-a6b1-b42d819c46c9" cx="203.28" cy="245.78" r="1.33"/><circle class="uuid-1f640984-4f26-4f35-a6b1-b42d819c46c9" cx="250.04" cy="219.39" r="1.33"/><circle class="uuid-1f640984-4f26-4f35-a6b1-b42d819c46c9" cx="285.49" cy="235.59" r="1.33"/><circle class="uuid-1f640984-4f26-4f35-a6b1-b42d819c46c9" cx="297.57" cy="243.32" r="1.33"/><circle class="uuid-1f640984-4f26-4f35-a6b1-b42d819c46c9" cx="299.56" cy="222.23" r="1.33"/><circle class="uuid-1f640984-4f26-4f35-a6b1-b42d819c46c9" cx="123.29" cy="192.38" r="1.33"/><circle class="uuid-1f640984-4f26-4f35-a6b1-b42d819c46c9" cx="123.79" cy="222.94" r="1.78"/><circle class="uuid-1f640984-4f26-4f35-a6b1-b42d819c46c9" cx="134.45" cy="245.45" r="1.78"/><circle class="uuid-1f640984-4f26-4f35-a6b1-b42d819c46c9" cx="262.15" cy="221.99" r="1.78"/><circle class="uuid-1f640984-4f26-4f35-a6b1-b42d819c46c9" cx="308.12" cy="219.39" r="1.78"/><circle class="uuid-1f640984-4f26-4f35-a6b1-b42d819c46c9" cx="285.37" cy="209.67" r="1.78"/><circle class="uuid-1f640984-4f26-4f35-a6b1-b42d819c46c9" cx="262.15" cy="210.62" r="1.78"/><path class="uuid-1f640984-4f26-4f35-a6b1-b42d819c46c9" d="M214.26,29.33l4.42-.42-4.41-.25c-.14-.85-.82-1.52-1.68-1.63l-.42-4.4-.25,4.43c-.8.18-1.41.85-1.51,1.67l-4.52.41,4.55.24c.17.76.78,1.36,1.56,1.5l.41,4.53.24-4.53c.82-.14,1.46-.77,1.62-1.57v.02Z"/><path class="uuid-1f640984-4f26-4f35-a6b1-b42d819c46c9" d="M139.68,78.52l4.42-.42-4.41-.25c-.13-.85-.82-1.52-1.68-1.63l-.42-4.4-.25,4.43c-.8.18-1.41.85-1.51,1.67l-4.52.41,4.55.24c.17.76.78,1.36,1.56,1.5l.41,4.53.24-4.53c.82-.13,1.46-.77,1.61-1.57v.02Z"/><path class="uuid-1f640984-4f26-4f35-a6b1-b42d819c46c9" d="M304.88,208.59l4.42-.42-4.41-.25c-.13-.85-.82-1.52-1.68-1.63l-.42-4.4-.25,4.43c-.8.18-1.41.85-1.51,1.67l-4.52.41,4.55.24c.17.76.78,1.36,1.56,1.5l.41,4.53.24-4.53c.81-.13,1.46-.76,1.61-1.57v.02Z"/><path class="uuid-1f640984-4f26-4f35-a6b1-b42d819c46c9" d="M124.76,276.59l4.42-.42-4.41-.25c-.14-.85-.82-1.52-1.68-1.63l-.42-4.39-.25,4.43c-.8.18-1.41.85-1.51,1.67l-4.52.41,4.55.24c.17.76.78,1.36,1.56,1.5l.41,4.53.24-4.53c.81-.13,1.46-.77,1.61-1.57h0Z"/><path class="uuid-1f640984-4f26-4f35-a6b1-b42d819c46c9" d="M290.84,243.42l4.42-.42-4.41-.25c-.13-.85-.82-1.52-1.68-1.63l-.42-4.4-.25,4.43c-.8.18-1.41.85-1.51,1.67l-4.52.41,4.55.24c.17.76.78,1.36,1.56,1.5l.41,4.53.24-4.53c.81-.13,1.46-.76,1.61-1.57v.02Z"/><path class="uuid-95b09e6a-18db-42eb-b460-c7ff395385fa" d="M217.65,120.53c-18.43,7.16-36.4,13.56-51.57,18.3-30.82,9.65-115.14,35.78-166.08,68.71l4.26,1.66c31.04-17.53,51.21-23.04,70.6-29.14,21.09-6.63,89.25-22.59,120.12-31.27,10.43-2.93,22.64-6.78,35.58-11.45-3.01-4.2-6.18-8.41-9.52-12.61-1.12-1.42-2.25-2.82-3.39-4.19h0ZM240.16,151.57c-4.46,3.01-8.2,5.42-10.82,6.93-15.16,8.77-89.09,59.23-105.9,70.84s-63.49,55.68-77.24,68.47l-.47,5.21c44.3-39.8,58.2-49.62,75.81-63.02,21.8-16.58,66.89-47.27,82.21-57.1,14.65-9.4,27.86-18.04,39.72-25.95-.19-.32-.39-.65-.58-.98-.89-1.46-1.8-2.93-2.73-4.41h0ZM309.42,78.42c-21.58,12.65-55.6,27.92-88.6,40.88.79.97,1.58,1.94,2.36,2.93,3.69,4.64,7.17,9.32,10.44,14,25.94-9.56,54.41-22.38,77-37.9-10.76,10.2-46.33,36.78-68.02,51.6,1.12,1.82,2.2,3.64,3.25,5.45,32.86-21.99,54.97-38.18,67.86-49,17.77-14.93,58.28-48.33,73.68-93.11-27.01,34.36-58.95,54.02-77.95,65.16h-.02Z"/><path class="uuid-1f640984-4f26-4f35-a6b1-b42d819c46c9" d="M159.67,197.75c-3.49-4.4-8.33-10.29-11.96-14.86-4.85-6.11-9.34-12.28-13.46-18.44-1.34.34-2.68.67-4.02,1.01,4.97,7.75,10.48,15.49,16.49,23.06,4.39,5.53,8.38,9.98,10.43,12.75.41.56,1.24,1.8,2.35,3.45,1.28-.87,2.57-1.75,3.87-2.63-1.26-1.37-2.5-2.81-3.71-4.33h.01ZM185.17,220.9c-2.87-2.72-9.83-7.25-17.08-14.06-1.6,1.1-3.21,2.21-4.83,3.33,4.68,6.59,11.05,14.69,16.04,17.05,7.52,3.56,9.54-2.84,5.87-6.33h0ZM223.17,122.22c-41.43-52.15-92.04-80.79-113.86-63.46-16.95,13.46-9.99,52.82,13.37,94.16,1.21-.41,2.4-.82,3.59-1.22-23.58-40.28-30.03-77.71-14.05-90.41,20.09-15.96,68.59,12.8,108.82,63.43,8.33,10.48,15.65,21,21.85,31.25,23.74,39.29,31.02,74.82,14.62,89.32-5.02,4.44-20.36,6.18-40.45-2.86-.28.35.17,1.3.52,1.54,17.34,6.97,33.95,9.63,42.34,2.97,20.15-16.02,4.67-72.57-36.76-124.72h.01Z"/><path class="uuid-1f640984-4f26-4f35-a6b1-b42d819c46c9" d="M45.49,128.41h26.54l22.27,37.79v-29.5c0-3.32-4.21-7.64-5.69-8.29h18.36c-1.13.3-4.74,4.68-4.74,8.29v43.36c0,2.67,3.85,6.34,5.69,7.76h-25.59l-22.63-37.97v29.85c0,2.96,2.9,5.8,5.92,8.23h-19.55c2.78-1.18,5.45-4.92,5.69-7.88s0-41.16,0-42.82c0-3.61-3.49-6.57-6.28-8.83h0Z"/><path class="uuid-1f640984-4f26-4f35-a6b1-b42d819c46c9" d="M288.21,187.82h35.3c-1.95-.47-4.15-2.78-5.33-5.86s-19.9-53.54-19.9-53.54h-13.42c-3.81,2.74-7.89,5.63-12.24,8.68-.01.11-.02.22-.04.33-.58,3.55-11.09,41.6-11.73,43.47-.89,2.61-5.45,5.51-7.29,7.05h19.01c-1.9-2.13-3.44-4.21-3.08-6.57.36-2.37,1.42-7.11,1.42-7.11h19.66c.89,2.37,1.55,4.5,1.9,6.52.41,2.43-2.07,5.15-4.26,7.05v-.02ZM272.7,166.67l6.63-21.68,8.77,21.68h-15.4ZM269.71,130.57c.98-.72,1.95-1.44,2.93-2.16h-5.15c.51.47,1.36,1.22,2.22,2.16Z"/><path class="uuid-1f640984-4f26-4f35-a6b1-b42d819c46c9" d="M134.69,181.36c.36-2.37,1.42-7.11,1.42-7.11h19.66c.89,2.37,1.55,4.5,1.9,6.52.41,2.43-2.07,5.15-4.26,7.05h31.08c.65-.43,1.29-.87,1.93-1.3-1.2-1.07-2.31-2.67-3.04-4.56-1.18-3.08-19.9-53.54-19.9-53.54h-30.8c1.48,1.36,5.75,5.03,5.09,9-.58,3.55-11.09,41.6-11.73,43.47-.89,2.61-5.45,5.51-7.29,7.05h19.01c-1.9-2.13-3.44-4.21-3.08-6.57h0ZM144.52,145l8.77,21.68h-15.4l6.63-21.68h0Z"/><path class="uuid-1f640984-4f26-4f35-a6b1-b42d819c46c9" d="M242.05,157.9c-5.8,3.86-11.91,7.89-18.36,12.1,2.89,1.4,5.19,3.16,5.41,5.44.41,4.27-8.17,6.34-15.93,5.45-1.55-.18-3.08-.58-4.53-1.13-1.61,1.04-3.24,2.08-4.89,3.14-1.68,1.08-3.72,2.4-6.04,3.94v6.13c1.54-3.02,4.91-5.73,7.52-5.86,1.13-.06,5.03,3.55,21.15,2.67,7.82-.43,22.92-8.77,22.69-18.36-.14-5.67-3.1-10.09-7.02-13.51h0ZM197.71,172.72v6.25c1.43-.95,2.83-1.89,4.21-2.8-2.17-1.51-3.7-2.92-4.21-3.45ZM236.54,153.98c-1.5-.89-3.02-1.67-4.48-2.35-7.58-3.55-15.52-4.21-17.18-9-1.17-3.38,2.13-6.52,10.19-6.4,8.06.12,15.52,4.92,17.53,6.63v-15.28c-.59.59-3.19,3.57-5.57,3.08-4.56-.95-12.32-2.18-21.2-2.13-10.19.06-18.95,7.93-19.25,17.89-.41,13.92,10.72,17.71,17,19.9.65.23,1.39.47,2.19.72,6.02-3.92,10.78-6.93,13.57-8.54,1.87-1.08,4.32-2.63,7.2-4.52h0Z"/></g></svg>